<svg width="727" height="390" viewBox="0 0 727 390" fill="none" xmlns="http://www.w3.org/2000/svg">
<g filter="url(#filter0_d)">
<path d="M705.79 321.413L652.799 374.555H20V67.9845L72.9906 15V321.413H705.79Z" fill="#FBBD09"/>
<path d="M199.547 42.6441C241.785 48.1753 265.132 72.2879 266.055 114.374C266.055 114.836 266.055 115.14 266.055 115.602V118.981C265.593 158.606 244.708 183.18 199.547 188.402V140.942C211.223 138.791 219.824 132.803 219.672 115.292C219.672 97.9383 211.223 93.179 199.547 91.9512V42.6441ZM126.133 41.4163H180.2C186.952 41.5682 193.408 41.8782 199.547 42.6441V91.9512C193.408 91.3312 186.497 91.6412 179.276 91.6412V142.018C186.339 142.018 193.408 142.018 199.547 140.942V188.402C193.25 189.174 186.497 189.477 179.276 189.477V268.574H126.133V41.4163Z" fill="#ED1639"/>
<path d="M599.656 41.2643L652.799 41.1124V268.27L599.656 268.422V41.2643Z" fill="#ED1639"/>
<path d="M338.855 132.651H398.453V176.731H338.855V224.653H398.453V268.574H286.023V41.4163H398.453L398.143 85.3441H338.855V132.651Z" fill="#ED1639"/>
<path d="M500.13 42.6441C542.362 48.1753 565.867 72.2879 566.785 114.374C567.399 144.17 557.57 165.979 535.299 178.111L585.372 268.118L527.313 268.27L500.13 219.425V140.942C511.953 138.791 520.402 132.803 520.402 115.292C520.402 97.9383 511.953 93.179 500.13 91.9512V42.6441ZM427.021 178.111L427.021 41.4163H480.929C487.688 41.5682 494.137 41.8782 500.13 42.6441V91.9512C494.137 91.3312 487.074 91.6412 480.005 91.6412V142.018C487.074 142.018 494.137 142.018 500.13 140.942V219.425L483.537 189.477C482.467 189.477 481.233 189.477 480.005 189.477V268.574H427.021V178.111Z" fill="#ED1639"/>
</g>
<defs>
<filter id="filter0_d" x="-5" y="0" width="736.35" height="404.207" filterUnits="userSpaceOnUse" color-interpolation-filters="sRGB">
<feFlood flood-opacity="0" result="BackgroundImageFix"/>
<feColorMatrix in="SourceAlpha" type="matrix" values="0 0 0 0 0 0 0 0 0 0 0 0 0 0 0 0 0 0 127 0"/>
<feOffset dy="10"/>
<feGaussianBlur stdDeviation="2.5"/>
<feColorMatrix type="matrix" values="0 0 0 0 0 0 0 0 0 0 0 0 0 0 0 0 0 0 0.25 0"/>
<feBlend mode="normal" in2="BackgroundImageFix" result="effect1_dropShadow"/>
<feBlend mode="normal" in="SourceGraphic" in2="effect1_dropShadow" result="shape"/>
</filter>
</defs>
</svg>
